<svg xmlns="http://www.w3.org/2000/svg" width="512" height="512" viewBox="0 0 512 512" version="1.1">
	<path d="M 225.605 26.984 C 196.251 30.971, 164.287 41.519, 141.537 54.726 C 129.341 61.805, 113.313 72.614, 105.500 79.027 C 95.742 87.037, 74.507 109.015, 67.845 118 C 60.434 127.996, 55 135.847, 55 136.560 C 55 136.879, 53.710 139.021, 52.134 141.320 C 47.503 148.076, 39.266 164.997, 34.427 177.698 C 17.408 222.363, 14.413 269.633, 25.665 316 C 28.468 327.547, 34.843 345.755, 40.347 357.929 C 52.222 384.196, 67.369 405.667, 89.429 427.500 C 106.657 444.551, 121.752 455.904, 141.809 466.893 C 152.709 472.865, 176.092 483.065, 178.662 482.969 C 179.123 482.951, 181.053 479.801, 182.950 475.969 C 184.848 472.136, 186.648 469.007, 186.950 469.016 C 187.253 469.025, 188.884 470.262, 190.576 471.766 C 192.268 473.270, 196.071 476.625, 199.027 479.222 L 204.401 483.944 202.126 486.366 C 199.438 489.227, 199.586 489.352, 208 491.292 C 221.741 494.460, 225.514 495.004, 241.428 496.114 C 294.093 499.788, 344.884 486.712, 389.678 457.948 C 413.807 442.454, 451 405.509, 451 397.035 C 451 395.720, 451.656 395, 452.855 395 C 454.086 395, 456.273 392.468, 459.355 387.473 C 461.910 383.333, 464 379.786, 464 379.590 C 464 379.394, 463.100 378.998, 462 378.710 C 458.707 377.849, 459.739 376, 463.512 376 L 467.024 376 466.530 371.750 C 466.099 368.031, 466.206 367.720, 467.387 369.261 C 469.070 371.457, 469.670 370.797, 473.986 362 C 480.866 347.975, 489.825 321.822, 492.527 307.871 C 496.241 288.703, 496.475 285.896, 496.475 260.500 C 496.475 232.269, 495.684 225.319, 489.987 203.500 C 479.144 161.968, 459.978 127.870, 430.326 97.360 C 412.312 78.824, 394.152 65.052, 372.500 53.507 C 360.556 47.139, 340.703 38.953, 329.500 35.778 C 311.349 30.634, 307.780 29.753, 297.500 27.879 C 281.046 24.880, 244.450 24.424, 225.605 26.984 M 223.460 68.064 C 219.786 69.133, 212 75.596, 212 77.578 C 212 78.360, 211.621 79, 211.158 79 C 209.705 79, 207.015 90.105, 206.072 100 C 205.067 110.543, 206.444 135.282, 208.349 140.887 C 209.357 143.853, 210.150 144.439, 214.745 145.615 C 217.630 146.353, 222.899 148.316, 226.454 149.978 C 230.008 151.640, 234.485 153, 236.403 153 C 241.527 153, 245.072 156.456, 245.704 162.070 C 246.208 166.535, 246.242 166.570, 249.651 166.172 C 251.982 165.900, 253.721 166.342, 255.051 167.546 C 256.130 168.522, 257.343 168.990, 257.748 168.586 C 258.152 168.181, 257.700 167.411, 256.742 166.875 C 254.557 165.653, 254.480 164, 256.607 164 C 257.611 164, 258.002 163.448, 257.649 162.529 C 257.339 161.720, 257.721 160.422, 258.499 159.644 C 259.717 158.426, 259.634 157.979, 257.900 156.410 C 256.312 154.973, 255.510 154.825, 254.094 155.709 C 252.413 156.759, 252.257 155.997, 251.636 143.728 C 251.186 134.829, 251.320 130.286, 252.054 129.563 C 253.746 127.898, 255.594 131.214, 256.905 138.268 C 259.695 153.285, 263.367 167.033, 264.331 166.069 C 264.988 165.412, 264.751 162.609, 263.630 157.788 C 262.699 153.780, 261.236 146.900, 260.379 142.500 C 259.522 138.100, 258.213 132.319, 257.471 129.654 C 256.642 126.675, 256.445 123.978, 256.961 122.654 C 258.337 119.117, 263.463 114.947, 268.127 113.572 C 270.610 112.840, 272.637 111.589, 272.816 110.679 C 273.229 108.585, 266.084 93.395, 260.503 84.500 C 255.772 76.961, 251.545 73.062, 246 71.123 C 242.761 69.990, 228.135 66.886, 227 67.090 C 226.725 67.140, 225.132 67.578, 223.460 68.064 M 148.500 79.710 C 143.972 80.791, 134.375 92.374, 128.685 103.625 C 124.950 111.011, 122.077 122.979, 121.340 134.226 C 120.534 146.523, 121.236 146.714, 131.735 137.040 C 138.182 131.099, 139.964 129.989, 143.894 129.465 C 146.427 129.127, 149.175 128.588, 150 128.267 C 150.825 127.946, 152.828 127.494, 154.452 127.263 C 164.094 125.891, 174.383 115.908, 175.608 106.737 C 176.398 100.823, 174.800 97.511, 169.340 93.746 C 166.752 91.961, 163.929 89.769, 163.067 88.876 C 162.205 87.982, 159.754 85.395, 157.621 83.126 C 153.859 79.125, 152.725 78.701, 148.500 79.710 M 241.371 106.080 C 240.804 109.630, 240.445 110.083, 238.609 109.566 C 233.380 108.095, 227.965 107.857, 224.649 108.951 C 220.569 110.297, 213.470 117.763, 212.766 121.446 C 212.120 124.822, 213.323 126.521, 214.961 124.547 C 216.591 122.583, 218 122.561, 218 124.500 C 218 125.325, 218.568 126, 219.263 126 C 219.957 126, 220.970 127.013, 221.513 128.250 C 222.347 130.152, 223.274 130.500, 227.500 130.500 C 231.952 130.500, 232.536 130.249, 232.825 128.206 C 233.068 126.492, 233.615 126.060, 234.991 126.497 C 236.003 126.818, 237.121 126.613, 237.475 126.041 C 238.408 124.530, 242.308 124.766, 244.559 126.468 C 248.573 129.504, 249.327 128.529, 248.595 121.250 C 248.222 117.537, 247.807 113.150, 247.673 111.500 C 247.419 108.381, 244.144 102, 242.796 102 C 242.371 102, 241.730 103.836, 241.371 106.080 M 442.796 120.538 C 442.500 120.833, 440.128 121.336, 437.524 121.655 C 433.148 122.191, 424.544 125.766, 406.274 134.640 C 401.728 136.848, 398.317 137.918, 397.077 137.524 C 394.690 136.767, 385.104 140.594, 383 143.145 C 382.175 144.145, 378.603 146.096, 375.062 147.481 C 367.291 150.520, 365.425 150.881, 365.738 149.286 C 365.876 148.584, 365.348 148.313, 364.488 148.643 C 363.670 148.957, 363 149.642, 363 150.166 C 363 150.690, 362.523 150.823, 361.940 150.463 C 360.367 149.491, 354.855 151.961, 352 154.918 C 350.625 156.343, 347.475 158.343, 345 159.363 C 342.525 160.384, 339.375 161.694, 338 162.275 C 335.130 163.488, 334.748 163.609, 329.968 164.806 C 328.025 165.293, 322.794 167.336, 318.342 169.346 C 313.891 171.355, 309.893 173, 309.459 173 C 309.025 173, 305.144 174.407, 300.835 176.127 C 293.699 178.974, 293 179.500, 293 182.017 C 293 184.482, 293.731 185.090, 299.750 187.629 C 303.462 189.195, 313.744 194.134, 322.597 198.604 C 331.450 203.074, 339.325 206.942, 340.096 207.199 C 341.064 207.521, 327.526 228.562, 296.416 275.088 C 271.620 312.170, 250.792 343.520, 250.131 344.755 C 247.588 349.507, 250.028 346.609, 256.597 337.075 C 263.215 327.471, 265 325.981, 265 330.059 C 265 331.750, 265.724 332, 270.614 332 L 276.227 332 275.533 327.372 C 274.551 320.821, 274.090 320, 271.393 320 C 270.077 320, 269 319.731, 269 319.402 C 269 318.816, 279.475 303.456, 281.202 301.510 C 281.685 300.965, 281.360 302.540, 280.480 305.010 C 278.749 309.864, 279.183 317.143, 281.299 318.747 C 281.962 319.250, 287.356 319.398, 293.350 319.079 C 305.490 318.431, 305.238 318.304, 306.464 325.704 L 307.160 329.909 312.990 330.204 L 318.819 330.500 311.801 340 L 304.784 349.500 295.642 350.189 C 290.614 350.568, 277.284 351.159, 266.020 351.503 C 246.786 352.089, 244.098 352.516, 244.014 355 C 244.004 355.275, 250.410 355.213, 258.248 354.863 C 279.979 353.891, 301 353.898, 301 354.878 C 301 355.360, 300.300 356.336, 299.445 357.045 C 298.590 357.755, 297.419 359.273, 296.842 360.418 C 294.051 365.957, 308.365 347.409, 354.272 286 C 372.979 260.975, 389.601 239.098, 391.209 237.384 L 394.133 234.267 415.317 245.462 C 426.967 251.619, 438.446 257.885, 440.825 259.388 C 443.203 260.890, 446.128 261.980, 447.325 261.810 C 449.227 261.539, 449.500 260.873, 449.500 256.500 C 449.500 253.750, 449.187 249.643, 448.803 247.374 C 448.044 242.878, 446.403 222.827, 444.926 200 C 444.409 192.025, 443.545 182.575, 443.005 179 C 442.464 175.425, 442.306 167.391, 442.653 161.147 C 443.056 153.902, 442.919 149.560, 442.275 149.147 C 440.769 148.182, 440.031 132, 441.492 132 C 442.214 132, 442.487 130.864, 442.213 129 C 441.949 127.199, 442.218 126, 442.887 126 C 443.499 126, 444 125.523, 444 124.941 C 444 124.359, 443.597 124.131, 443.105 124.435 C 442.612 124.740, 441.943 124.293, 441.616 123.442 C 441.290 122.592, 441.437 122.152, 441.942 122.464 C 442.448 122.777, 443.163 122.545, 443.531 121.950 C 444.256 120.777, 443.674 119.659, 442.796 120.538 M 275.182 133.500 C 274.176 135.708, 274.274 136, 276.021 136 C 277.465 136, 278 135.324, 278 133.500 C 278 132.125, 277.622 131, 277.161 131 C 276.699 131, 275.808 132.125, 275.182 133.500 M 261.545 139.250 C 262.324 146.799, 263.738 152.720, 264.939 153.463 C 266.477 154.413, 274 143.311, 274 140.092 C 274 139.313, 262.926 133, 261.560 133 C 261.198 133, 261.191 135.813, 261.545 139.250 M 253.250 182.674 C 252.012 183.538, 251 184.639, 251 185.122 C 251 186.257, 255.086 186.232, 256.896 185.086 C 258.279 184.210, 257.783 180.952, 256.281 181.052 C 255.852 181.081, 254.488 181.811, 253.250 182.674 M 250.609 198.695 C 244.948 201.067, 244.556 201.102, 240.576 199.582 C 235.277 197.558, 235 197.583, 235 200.088 C 235 202.568, 241.204 213.970, 243.863 216.376 C 245.628 217.973, 245.817 217.928, 247.387 215.532 C 248.547 213.761, 249.941 213, 252.023 213 C 253.925 213, 255 212.488, 255 211.583 C 255 210.804, 255.829 208.216, 256.842 205.833 C 257.856 203.450, 258.989 200.262, 259.361 198.750 C 260.214 195.284, 258.772 195.275, 250.609 198.695 M 336.362 228.282 C 333.361 228.764, 330.821 229.871, 329.725 231.173 C 328.749 232.334, 328.142 233.476, 328.377 233.711 C 328.971 234.304, 349.269 231.858, 350.500 231.045 C 351.050 230.681, 352.527 230.462, 353.782 230.557 C 356.840 230.789, 355.679 229.742, 352.502 229.403 C 351.126 229.256, 350 229.556, 350 230.068 C 350 230.581, 349.212 230.993, 348.250 230.985 C 346.754 230.972, 346.718 230.828, 348 230 C 349.297 229.162, 349.275 229.029, 347.833 229.015 C 346.917 229.007, 345.899 229.563, 345.572 230.250 C 345.245 230.938, 345.136 230.600, 345.330 229.500 C 345.732 227.217, 344.243 227.015, 336.362 228.282 M 381.998 235.683 C 381.997 236.132, 378.734 236.536, 374.748 236.579 C 365.095 236.685, 323.801 241.103, 322.378 242.182 C 321.210 243.068, 304 267.549, 304 268.325 C 304 268.568, 304.805 268.977, 305.789 269.235 C 307.246 269.616, 308.297 273.260, 311.444 288.851 L 315.309 308 318.635 308 C 321.449 308, 322.056 308.424, 322.574 310.750 C 322.910 312.262, 323.383 314.235, 323.623 315.133 C 323.944 316.330, 323.165 316.934, 320.706 317.395 L 317.352 318.025 318.373 323.012 C 318.935 325.756, 319.660 328, 319.984 328 C 320.308 328, 322.253 325.750, 324.306 323 C 327.095 319.264, 327.886 317.394, 327.435 315.598 C 326.926 313.569, 327.272 313.097, 329.666 312.559 C 331.619 312.120, 333.982 309.924, 337.270 305.491 C 342.868 297.943, 343.965 295.693, 341.603 296.599 C 340.712 296.941, 339.727 298.240, 339.414 299.485 C 338.961 301.290, 337.921 301.876, 334.283 302.375 C 326.073 303.500, 326.384 303.726, 325.180 295.750 C 323.039 281.565, 321.820 269.846, 322.424 269.243 C 322.908 268.758, 354.525 265.197, 359.750 265.038 C 360.438 265.017, 361 266.098, 361 267.441 C 361 268.784, 361.372 270.112, 361.826 270.392 C 362.280 270.673, 366.645 265.455, 371.526 258.796 C 385.292 240.017, 385.171 240.221, 383.951 237.696 C 382.968 235.662, 382.998 235.634, 384.349 237.310 C 385.343 238.543, 386.030 238.761, 386.504 237.993 C 387.338 236.645, 387.158 236.451, 384.250 235.557 C 383.012 235.176, 381.999 235.233, 381.998 235.683 M 429.454 240.250 C 429.720 241.213, 429.501 242, 428.969 242 C 426.940 242, 428.113 243.990, 430.493 244.588 C 431.864 244.932, 432.738 245.615, 432.434 246.107 C 432.130 246.598, 432.310 247, 432.834 247 C 433.358 247, 434.054 246.302, 434.382 245.448 C 434.755 244.475, 434.568 244.149, 433.881 244.573 C 433.150 245.025, 433.010 244.544, 433.460 243.125 C 433.860 241.864, 433.701 241, 433.067 241 C 432.480 241, 431.980 241.787, 431.955 242.750 C 431.925 243.892, 431.399 243.458, 430.440 241.500 C 429.631 239.850, 429.188 239.287, 429.454 240.250 M 436.374 242.467 C 436.065 243.274, 436.004 244.511, 436.240 245.217 C 436.476 245.923, 436.906 245.262, 437.196 243.750 C 437.762 240.797, 437.295 240.068, 436.374 242.467 M 438.385 244.199 C 438.724 245.322, 438.179 246.126, 436.776 246.571 C 434.679 247.237, 434.683 247.260, 437.077 248.553 C 440.375 250.335, 441.530 248.828, 439.526 245.360 C 438.617 243.787, 438.103 243.264, 438.385 244.199 M 221 258.184 C 221 260.719, 217.197 269, 216.033 269 C 215.600 269, 214.685 268.325, 214 267.500 C 213.315 266.675, 212.357 266, 211.871 266 C 211.385 266, 209.009 269.086, 206.591 272.858 C 202.536 279.184, 197.087 284, 193.985 284 C 193.282 284, 190.753 282.400, 188.366 280.444 C 185.979 278.488, 181.883 276.169, 179.263 275.291 C 176.643 274.412, 173.612 273.088, 172.527 272.347 C 170.230 270.778, 169 270.627, 169 271.913 C 169 272.995, 179.277 286.863, 184.116 292.310 L 187.500 296.121 191.752 292.973 C 195.454 290.232, 196.520 289.912, 199.999 290.500 C 203.152 291.032, 204.124 290.840, 204.605 289.588 C 205.412 287.484, 209.525 287.600, 214.500 289.866 C 218.304 291.598, 223.510 296.581, 227.188 302.009 C 228.795 304.382, 228.852 303.717, 228.385 288 C 227.884 271.111, 226.507 259.472, 224.746 257.250 C 223.168 255.259, 221 255.800, 221 258.184 M 347.500 276.668 C 335.560 277.660, 334.999 277.868, 335.011 281.311 C 335.017 283.065, 335.293 286.139, 335.624 288.143 L 336.227 291.786 339.578 289.512 C 341.421 288.261, 344.885 286.944, 347.276 286.586 C 351.005 286.027, 352.149 285.228, 355.331 280.967 L 359.039 276 355.269 276.168 C 353.196 276.261, 349.700 276.486, 347.500 276.668 M 293.478 296.725 C 291.386 302.651, 289.448 308.130, 289.173 308.900 C 288.763 310.044, 289.901 310.201, 295.391 309.761 C 299.088 309.464, 302.272 309.059, 302.467 308.861 C 302.824 308.499, 298.133 286.800, 297.578 286.245 C 297.416 286.082, 295.571 290.798, 293.478 296.725 M 219.956 308.628 C 219.932 309.107, 219.525 311.512, 219.050 313.971 C 218.290 317.912, 218.535 319.109, 221.112 324.062 C 222.721 327.153, 224.833 331.941, 225.806 334.704 C 226.778 337.466, 228.355 340.800, 229.310 342.113 C 231.035 344.486, 231.042 344.473, 230.453 340 C 230.128 337.525, 229.218 332.876, 228.431 329.669 C 227.644 326.462, 226.990 322.637, 226.978 321.169 C 226.951 317.886, 223.902 310.984, 221.658 309.128 C 220.746 308.373, 219.980 308.148, 219.956 308.628 M 249 379.826 C 249 382.672, 244.898 385.833, 240.239 386.578 C 235.672 387.308, 235.329 387.731, 237.250 390.268 C 238.085 391.371, 240.322 392.016, 243.988 392.210 L 249.476 392.500 251.908 401.251 C 254.309 409.894, 254.365 409.981, 256.380 408.251 C 258.415 406.505, 258.416 406.508, 256.649 409.309 C 255.674 410.854, 255.017 412.807, 255.188 413.647 C 255.384 414.608, 257.017 413.106, 259.583 409.605 L 263.666 404.034 260.992 393.767 C 259.521 388.120, 258.013 382.262, 257.640 380.750 C 257.042 378.324, 256.493 378, 252.981 378 C 249.793 378, 249 378.364, 249 379.826 M 122.731 403.603 C 122.399 403.934, 122.567 405.362, 123.105 406.775 C 123.642 408.189, 123.823 410.019, 123.507 410.842 C 123.180 411.694, 124.889 415.283, 127.474 419.170 C 131.375 425.036, 132.432 426, 134.961 426 C 138.987 426, 142.834 427.902, 143.584 430.263 C 144.146 432.037, 144.354 432.075, 145.762 430.667 C 147.170 429.259, 146.756 428.416, 141.409 421.805 C 138.159 417.787, 134.375 413.343, 133 411.928 C 131.625 410.514, 129.224 407.926, 127.665 406.178 C 124.821 402.989, 123.850 402.483, 122.731 403.603 M 298 441.437 C 298 442.356, 299.525 447.696, 301.388 453.304 C 303.251 458.912, 305.081 464.936, 305.454 466.692 C 306.025 469.373, 306.642 469.933, 309.317 470.192 C 311.497 470.403, 312.424 470.978, 312.260 472.017 C 312.065 473.245, 313.277 473.530, 318.637 473.517 C 323.022 473.506, 325.416 473.922, 325.734 474.750 C 326.841 477.635, 331.669 475.003, 332.613 471 C 334.193 464.299, 334.096 463.123, 331.551 458.101 C 330.103 455.244, 328.149 452.670, 327.209 452.381 C 325.198 451.763, 324.614 451.417, 319.143 447.615 C 316.860 446.028, 311.957 443.853, 308.246 442.782 C 304.536 441.711, 300.712 440.594, 299.750 440.301 C 298.569 439.940, 298 440.310, 298 441.437" stroke="none" fill="black" fill-rule="evenodd"/>
</svg>